# xmcd
#
# Track frame offsets: 
#        150
#        19762
#        33770
#        47990
#        73447
#        97990
#        109215
#        153267
#        167120
#        187297
#        226302
#        242082
#        259317
#        275252
#
# Disc length: 3931 seconds
#
# Revision: 2
# Processed by: cddbd v1.5.2PL0 Copyright (c) Steve Scherf et al.
# Submitted via: ExactAudioCopy v0.99pb5
#
DISCID=c40f590e
DTITLE=Various Artist - RCD July Collection 13
DYEAR=1993
DGENRE=Rock
TTITLE0=Otis Redding - A Hard Day's Night
TTITLE1=Howlin' Wolf - Smokestack Lightnin'
TTITLE2=The Chocolate Watchband - In The Past
TTITLE3=Bivouac - Drank
TTITLE4=Fishbone - End The Reign
TTITLE5=The The - Bugle Boy
TTITLE6=Jimmy Page and Albert Lee - One Long Kiss
TTITLE7=The Jesus And Mary Chain - Heat
TTITLE8=That Petrol Emotion - Infinite Thrill
TTITLE9=Inspiral Carpets - Irresistible Force (Frog Mix)
TTITLE10=Sun Dial - Send
TTITLE11=Warren Zevon - Play It All Night Long
TTITLE12=Manic Street Preachers - Symphony Of Tourette
TTITLE13=Shawn Colvin - Tennessee
EXTD=
EXTT0=
EXTT1=
EXTT2=
EXTT3=
EXTT4=
EXTT5=
EXTT6=
EXTT7=
EXTT8=
EXTT9=
EXTT10=
EXTT11=
EXTT12=
EXTT13=
PLAYORDER=
